Coordinates
version=1
nRows=4
nColumns=114
inDegrees=yes

Units are S.I. units (second, meters, Newtons, ...)
If the header above contains a line with 'inDegrees', this indicates whether rotational values are in degrees (yes) or radians (no).

endheader 
time	pelvis_tilt	pelvis_list	pelvis_rotation	pelvis_tx	pelvis_ty	pelvis_tz	hip_flexion_l	hip_adduction_l	hip_rotation_l	hip_flexion_r	hip_adduction_r	hip_rotation_r	knee_angle_l	knee_angle_r	ankle_angle_l	ankle_angle_r	subtalar_angle_l	subtalar_angle_r	mtp_angle_l	mtp_angle_r	lumbar_extension	lumbar_bending	lumbar_rotation	arm_flex_l	arm_add_l	arm_rot_l	arm_flex_r	arm_add_r	arm_rot_r	elbow_flex_l	elbow_flex_r	pro_sup_l	pro_sup_r	addbrev_l/activation	addlong_l/activation	addmagDist_l/activation	addmagIsch_l/activation	addmagMid_l/activation	addmagProx_l/activation	bflh_l/activation	bfsh_l/activation	edl_l/activation	ehl_l/activation	fdl_l/activation	fhl_l/activation	gaslat_l/activation	gasmed_l/activation	glmax1_l/activation	glmax2_l/activation	glmax3_l/activation	glmed1_l/activation	glmed2_l/activation	glmed3_l/activation	glmin1_l/activation	glmin2_l/activation	glmin3_l/activation	grac_l/activation	iliacus_l/activation	perbrev_l/activation	perlong_l/activation	piri_l/activation	psoas_l/activation	recfem_l/activation	sart_l/activation	semimem_l/activation	semiten_l/activation	soleus_l/activation	tfl_l/activation	tibant_l/activation	tibpost_l/activation	vasint_l/activation	vaslat_l/activation	vasmed_l/activation	addbrev_r/activation	addlong_r/activation	addmagDist_r/activation	addmagIsch_r/activation	addmagMid_r/activation	addmagProx_r/activation	bflh_r/activation	bfsh_r/activation	edl_r/activation	ehl_r/activation	fdl_r/activation	fhl_r/activation	gaslat_r/activation	gasmed_r/activation	glmax1_r/activation	glmax2_r/activation	glmax3_r/activation	glmed1_r/activation	glmed2_r/activation	glmed3_r/activation	glmin1_r/activation	glmin2_r/activation	glmin3_r/activation	grac_r/activation	iliacus_r/activation	perbrev_r/activation	perlong_r/activation	piri_r/activation	psoas_r/activation	recfem_r/activation	sart_r/activation	semimem_r/activation	semiten_r/activation	soleus_r/activation	tfl_r/activation	tibant_r/activation	tibpost_r/activation	vasint_r/activation	vaslat_r/activation	vasmed_r/activation	
          1.94000000	        -24.14603880	         -9.03713471	        -55.94190564	          1.30932260	          0.88521783	          0.31361973	         31.69866875	        -19.87938199	         -5.71167127	         62.70395041	        -20.21941770	        -21.57912163	         49.02693331	        137.73950353	         27.25479837	         -4.93124827	        -18.25402128	        -33.65139127	        -11.13487802	          0.00644806	        -21.48028147	          8.50568772	          9.58151624	          6.65866056	        -26.08919389	          7.38431262	         -9.03733788	        -24.94353095	         12.37707512	         52.69111326	         48.54135606	         82.26520942	         70.19283667	          0.02567679	          0.01665940	          0.07959671	          0.10783249	          0.05017062	          0.03726951	          0.11080124	          0.22455528	          0.12369576	          0.10982611	          0.07272420	          0.11906985	          0.27482133	          0.41406354	          0.19711488	          0.34268751	          0.16802498	          0.03058681	          0.16693732	          0.17991121	          0.02541614	          0.04825784	          0.04561874	          0.08096132	          0.01445871	          0.09126127	          0.10433022	          0.04516510	          0.06503837	          0.32373685	          0.26826363	          0.10859239	          0.29535150	          0.65308233	          0.02794494	          0.33928991	          0.22059601	          0.33235901	          0.78859005	          0.45260384	          0.01008402	          0.01004906	          0.01011611	          0.01020651	          0.01008596	          0.01015660	          0.01591809	          0.23489860	          0.05752418	          0.04751081	          0.04436560	          0.04081960	          0.13881256	          0.19153291	          0.01084272	          0.01093367	          0.01014421	          0.01265090	          0.01478295	          0.01454786	          0.01303325	          0.02238843	          0.05927376	          0.01018983	          0.01482761	          0.05464877	          0.06416872	          0.94019551	          0.22602479	          0.30154541	          0.99970106	          0.01006938	          0.01013721	          0.02692496	          0.33366477	          0.03841769	          0.03638405	          0.01009968	          0.01002873	          0.01006288	
          1.95000000	        -22.40594803	         -7.47029760	        -56.28795211	          1.31380300	          0.88919789	          0.31709924	         29.80174325	        -17.19044370	         -7.44073629	         63.94495739	        -21.56597066	        -18.21346138	         46.57542931	        137.99801918	         25.20511580	         -6.21650832	        -20.40962314	        -33.04434877	        -12.22221299	          0.03374857	        -20.07860081	          6.13263348	          9.20967769	          5.82792694	        -29.03497031	          9.35905145	        -12.59890775	        -26.55215080	         13.06825061	         56.48368978	         52.13364962	         81.98073166	         69.78010408	          0.04003300	          0.03708329	          0.06966661	          0.09163491	          0.05031620	          0.04172843	          0.09264515	          0.18736330	          0.10338588	          0.09178811	          0.06143009	          0.09964055	          0.26922606	          0.42825212	          0.16454478	          0.28571023	          0.14035077	          0.23086566	          0.13975415	          0.15021262	          0.10722102	          0.04796290	          0.03961098	          0.06803218	          0.05459535	          0.08288967	          0.08802603	          0.03794357	          0.05497465	          0.33159199	          0.22375210	          0.09062578	          0.26815162	          0.57625299	          0.04380309	          0.33880765	          0.18410982	          0.27735063	          0.65730695	          0.37744167	          0.01009067	          0.01005236	          0.01012171	          0.01022366	          0.01008992	          0.01015937	          0.01329900	          0.19705667	          0.06255994	          0.05003829	          0.04461711	          0.04032500	          0.12940940	          0.16650697	          0.01093692	          0.01089709	          0.01014750	          0.01246084	          0.01504561	          0.01420417	          0.01270328	          0.02273477	          0.05417495	          0.01019485	          0.10971548	          0.05483806	          0.06193516	          0.86730275	          0.19029288	          0.25144231	          0.99972171	          0.01006489	          0.01013697	          0.02322351	          0.27912483	          0.04856510	          0.03699196	          0.01010525	          0.01003018	          0.01006618	
          1.96000000	        -20.94768021	         -6.18646685	        -56.61640161	          1.31853142	          0.89373289	          0.32011781	         28.07721340	        -14.72968849	         -8.61633645	         64.92250202	        -22.63816232	        -15.23352752	         44.06902408	        137.86403853	         23.01143782	         -7.00874319	        -22.52767727	        -31.92553978	        -13.22563498	          0.06708655	        -18.89584567	          4.21955328	          9.37077232	          5.70138604	        -32.21956543	         11.83869807	        -17.51433228	        -28.58099879	         12.97399633	         60.78672838	         56.82568777	         81.75246341	         68.84993770	          0.03455397	          0.03150733	          0.05940352	          0.07749671	          0.04350058	          0.03688330	          0.07749683	          0.15641689	          0.08638157	          0.07689285	          0.05161292	          0.08391536	          0.25931583	          0.42039094	          0.13748710	          0.23830011	          0.11728105	          0.31202188	          0.11744338	          0.12556671	          0.19815396	          0.05826720	          0.03542254	          0.05718359	          0.04753541	          0.06980884	          0.07355844	          0.03207929	          0.04635700	          0.31068244	          0.18672005	          0.07571679	          0.22353484	          0.56413368	          0.15414595	          0.28238711	          0.20644660	          0.23146342	          0.54792829	          0.31479970	          0.01010183	          0.01005814	          0.01013111	          0.01024425	          0.01009774	          0.01017221	          0.01114461	          0.16748255	          0.06611044	          0.05231709	          0.04479705	          0.03972533	          0.12428706	          0.15110640	          0.01091680	          0.01076160	          0.01015447	          0.01202391	          0.01446124	          0.01355509	          0.01227708	          0.02139888	          0.04739813	          0.01020732	          0.09777074	          0.05435437	          0.06039929	          0.84495439	          0.16814246	          0.20960314	          0.99972342	          0.01006400	          0.01014236	          0.02002534	          0.26636754	          0.06292182	          0.03773718	          0.01011527	          0.01003324	          0.01007236	
          1.97000000	        -19.80858952	         -5.13756964	        -56.83908508	          1.32322197	          0.89839173	          0.32241896	         26.64369067	        -12.54084769	         -9.22905346	         65.76417669	        -23.49035223	        -12.66567539	         41.62501922	        137.41520004	         20.61725479	         -7.22216704	        -24.61252350	        -30.21333038	        -14.21918131	          0.09787693	        -17.87725659	          2.78566405	          9.91751051	          6.65749508	        -35.60839159	         14.54887342	        -23.63134760	        -30.97154968	         11.84486900	         65.59642007	         62.60497507	         81.41597034	         67.38537752	          0.02924472	          0.02647553	          0.05077334	          0.06607041	          0.03712286	          0.03169756	          0.06562703	          0.13063042	          0.07224870	          0.06452782	          0.04670830	          0.07124532	          0.23940280	          0.40981549	          0.11576590	          0.19925077	          0.09828866	          0.37067565	          0.11201443	          0.10645076	          0.17365015	          0.13434067	          0.07348242	          0.04803906	          0.03990349	          0.05870038	          0.06266578	          0.03405686	          0.03886722	          0.31017054	          0.15586313	          0.06324081	          0.19667680	          0.63271766	          0.14118601	          0.23543876	          0.25850877	          0.19395155	          0.45726141	          0.26313116	          0.01011374	          0.01006373	          0.01014833	          0.01027866	          0.01010992	          0.01018939	          0.01024215	          0.15520894	          0.07019488	          0.05472658	          0.04506829	          0.03928139	          0.12569419	          0.15238446	          0.01124487	          0.01116967	          0.01017737	          0.01161531	          0.01397038	          0.01352389	          0.01190094	          0.01958415	          0.04086821	          0.01023401	          0.08192297	          0.05419380	          0.05839106	          0.82365672	          0.14055625	          0.17471319	          0.99970874	          0.01007460	          0.01016340	          0.01727525	          0.26377490	          0.07861044	          0.03844826	          0.01012344	          0.01003606	          0.01007741	
